<svg xmlns="http://www.w3.org/2000/svg" viewBox="0 0 96 96" role="img" aria-label="Q to me">
  <defs>
    <linearGradient id="brandMark" x1="18" y1="10" x2="78" y2="86" gradientUnits="userSpaceOnUse">
      <stop offset="0" stop-color="#14b8a6"/>
      <stop offset="0.58" stop-color="#0f766e"/>
      <stop offset="1" stop-color="#112d35"/>
    </linearGradient>
    <linearGradient id="brandWarm" x1="58" y1="60" x2="83" y2="83" gradientUnits="userSpaceOnUse">
      <stop offset="0" stop-color="#fbbf24"/>
      <stop offset="1" stop-color="#f59e0b"/>
    </linearGradient>
  </defs>
  <rect width="96" height="96" rx="24" fill="#ffffff"/>
  <rect x="3" y="3" width="90" height="90" rx="21" fill="none" stroke="#d7e0e0" stroke-width="2"/>
  <path d="M48 17c17.12 0 31 13.88 31 31 0 5.5-1.43 10.66-3.94 15.13l7.77 7.77a5.4 5.4 0 0 1 0 7.64 5.4 5.4 0 0 1-7.64 0l-7.76-7.76A30.87 30.87 0 0 1 48 79c-17.12 0-31-13.88-31-31s13.88-31 31-31Zm0 13c-9.94 0-18 8.06-18 18s8.06 18 18 18 18-8.06 18-18-8.06-18-18-18Z" fill="url(#brandMark)"/>
  <rect x="34" y="34" width="10" height="10" rx="2" fill="#ffffff"/>
  <rect x="50" y="34" width="10" height="10" rx="2" fill="#ffffff"/>
  <rect x="34" y="50" width="10" height="10" rx="2" fill="#ffffff"/>
  <rect x="52" y="52" width="8" height="8" rx="2" fill="#ffffff"/>
  <path d="M63 62h13v13" fill="none" stroke="url(#brandWarm)" stroke-width="7" stroke-linecap="round" stroke-linejoin="round"/>
  <path d="M76 62 58 80" fill="none" stroke="url(#brandWarm)" stroke-width="7" stroke-linecap="round"/>
</svg>
